<svg width="100" height="100" viewBox="0 0 100 100" xmlns="http://www.w3.org/2000/svg">
  <defs>
    <pattern id="grid" width="10" height="10" patternUnits="userSpaceOnUse">
      <path d="M 10 0 L 0 0 0 10" fill="none" stroke="white" stroke-width="0.5" stroke-opacity="0.2"/>
    </pattern>
    <pattern id="circles" width="50" height="50" patternUnits="userSpaceOnUse">
      <circle cx="25" cy="25" r="10" fill="none" stroke="white" stroke-width="0.5" stroke-opacity="0.2"/>
      <circle cx="25" cy="25" r="5" fill="none" stroke="white" stroke-width="0.5" stroke-opacity="0.2"/>
    </pattern>
  </defs>
  <rect width="100" height="100" fill="url(#grid)"/>
  <rect width="100" height="100" fill="url(#circles)"/>
  <path d="M20,20 L40,20 L50,30 L60,25 L70,40 L80,35" fill="none" stroke="white" stroke-width="1" stroke-opacity="0.3"/>
  <path d="M30,50 L40,55 L50,45 L60,60 L70,50 L80,70" fill="none" stroke="white" stroke-width="1" stroke-opacity="0.3"/>
  <circle cx="20" cy="20" r="2" fill="white" fill-opacity="0.4"/>
  <circle cx="40" cy="20" r="2" fill="white" fill-opacity="0.4"/>
  <circle cx="50" cy="30" r="2" fill="white" fill-opacity="0.4"/>
  <circle cx="60" cy="25" r="2" fill="white" fill-opacity="0.4"/>
  <circle cx="70" cy="40" r="2" fill="white" fill-opacity="0.4"/>
  <circle cx="80" cy="35" r="2" fill="white" fill-opacity="0.4"/>
  <circle cx="30" cy="50" r="2" fill="white" fill-opacity="0.4"/>
  <circle cx="40" cy="55" r="2" fill="white" fill-opacity="0.4"/>
  <circle cx="50" cy="45" r="2" fill="white" fill-opacity="0.4"/>
  <circle cx="60" cy="60" r="2" fill="white" fill-opacity="0.4"/>
  <circle cx="70" cy="50" r="2" fill="white" fill-opacity="0.4"/>
  <circle cx="80" cy="70" r="2" fill="white" fill-opacity="0.4"/>
</svg> 